<svg width="15" height="17" viewBox="0 0 15 17" fill="none" xmlns="http://www.w3.org/2000/svg">
<path d="M8.90924 15.349C8.17744 16.2731 6.7757 16.2748 6.04192 15.3523L0.934337 8.93092C0.166302 7.9657 0.846098 6.53956 2.07924 6.52748L3.46693 6.51368L3.46817 1.84902C3.46822 1.6086 3.51565 1.37054 3.60773 1.14845C3.69982 0.926368 3.83477 0.724605 4.00487 0.554692C4.17496 0.38478 4.37687 0.25005 4.59906 0.1582C4.82124 0.0663503 5.05935 0.0191807 5.29977 0.0193872L9.65805 0.0233304C10.143 0.0238934 10.6079 0.216927 10.9507 0.56003C11.2934 0.903133 11.4859 1.36825 11.486 1.85321L11.4865 6.51269L12.8419 6.51343C14.0804 6.51417 14.7713 7.94352 14.003 8.91441L8.90924 15.349ZM6.72418 14.81C6.81407 14.923 6.92833 15.0143 7.05843 15.0769C7.18853 15.1396 7.3311 15.172 7.47551 15.1719C7.61991 15.1717 7.76241 15.1389 7.89236 15.076C8.02232 15.013 8.13637 14.9215 8.22599 14.8083L13.3198 8.37363C13.636 7.97359 13.3518 7.38524 12.8416 7.38474L11.0504 7.384C10.9932 7.38401 10.9365 7.37274 10.8837 7.35085C10.8308 7.32895 10.7827 7.29685 10.7423 7.25638C10.7018 7.21592 10.6697 7.16787 10.6478 7.115C10.6259 7.06212 10.6146 7.00545 10.6146 6.94822L10.6149 1.85321C10.6148 1.59915 10.5139 1.35552 10.3343 1.17583C10.1547 0.996136 9.91112 0.89509 9.65707 0.894888L5.29878 0.890945C5.17286 0.890851 5.04816 0.915567 4.93179 0.963681C4.81542 1.0118 4.70968 1.08237 4.62059 1.17136C4.53151 1.26035 4.46083 1.36603 4.41259 1.48235C4.36436 1.59866 4.33951 1.72334 4.33948 1.84926L4.33825 6.94527C4.33827 7.06008 4.29297 7.17026 4.2122 7.25187C4.13143 7.33347 4.02171 7.37989 3.9069 7.38104L2.08787 7.39879C1.58012 7.40372 1.30036 7.99109 1.61635 8.38841L6.72418 14.81Z" fill="#6F6F6F"/>
</svg>
