<?xml version="1.0" encoding="iso-8859-1"?>
<!-- Generator: Adobe Illustrator 19.0.0, SVG Export Plug-In . SVG Version: 6.00 Build 0)  -->
<svg version="1.1" id="Layer_1" xmlns="http://www.w3.org/2000/svg" xmlns:xlink="http://www.w3.org/1999/xlink" x="0px" y="0px"
	 viewBox="0 0 295.996 295.996" style="enable-background:new 0 0 295.996 295.996;" xml:space="preserve">
<g>
	<path style="fill:#FFCE00;" d="M270.996,123.998c0-11.334-1.363-22.348-3.907-32.9c-7.269-15.152-17.35-28.708-29.558-39.996
		c-22.391-13.376-48.766-20.666-76.771-19.645C83.492,34.273,23.139,99.196,25.955,176.463c0.412,11.304,2.17,22.239,5.087,32.673
		c6.303,12.01,14.397,22.938,23.934,32.42c21.892,14.189,47.99,22.44,76.022,22.44C208.316,263.996,270.996,201.316,270.996,123.998
		z M173.719,89.972c4.586-4.46,10.68-6.916,17.161-6.916c5.802,0,11.64,2.089,16.117,6.176c4.477-4.087,10.315-6.176,16.117-6.176
		c6.48,0,12.575,2.456,17.16,6.917c3.523,3.427,7.723,9.596,7.723,19.524c0,19.059-30.181,42.432-36.231,46.923l-4.769,3.541
		l-4.769-3.541c-6.051-4.491-36.231-27.864-36.231-46.923C165.997,99.568,170.196,93.398,173.719,89.972z M50.997,109.497
		c0-9.929,4.199-16.099,7.722-19.525c4.586-4.46,10.68-6.916,17.161-6.916c5.802,0,11.64,2.089,16.117,6.176
		c4.478-4.087,10.315-6.176,16.117-6.176c6.48,0,12.575,2.456,17.16,6.917c3.523,3.427,7.723,9.596,7.723,19.524
		c0,19.059-30.181,42.432-36.231,46.923l-4.769,3.541l-4.769-3.541C81.178,151.929,50.997,128.556,50.997,109.497z M83.914,181.997
		c22.657,0,132.166,0,132.166,0c0,36.448-29.587,66.083-66.083,66.083C113.5,248.08,83.914,218.445,83.914,181.997z"/>
	<path style="fill:#FFB100;" d="M267.089,91.098c2.544,10.553,3.907,21.566,3.907,32.9c0,77.318-62.68,139.998-139.998,139.998
		c-28.032,0-54.131-8.251-76.022-22.44c23.88,23.744,56.767,38.44,93.022,38.44c72.784,0,131.998-59.214,131.998-131.998
		C279.996,127.636,275.358,108.337,267.089,91.098z"/>
	<path style="fill:#FFE454;" d="M160.76,31.457c28.006-1.021,54.381,6.269,76.771,19.645C213.985,29.328,182.521,16,147.998,16
		C75.214,16,16,75.214,16,147.998c0,22.05,5.442,42.849,15.042,61.138c-2.917-10.434-4.675-21.369-5.087-32.673
		C23.139,99.196,83.492,34.273,160.76,31.457z"/>
	<path d="M147.998,0C66.392,0,0,66.392,0,147.998s66.392,147.998,147.998,147.998s147.998-66.392,147.998-147.998
		S229.605,0,147.998,0z M147.998,279.996c-36.256,0-69.143-14.696-93.022-38.44c-9.536-9.482-17.631-20.41-23.934-32.42
		C21.442,190.847,16,170.048,16,147.998C16,75.214,75.214,16,147.998,16c34.523,0,65.987,13.328,89.533,35.102
		c12.208,11.288,22.289,24.844,29.558,39.996c8.27,17.239,12.907,36.538,12.907,56.9
		C279.996,220.782,220.782,279.996,147.998,279.996z"/>
	<path style="fill:#E36600;" d="M75.88,99.056c-4.098,0-8.883,2.734-8.883,10.441c0,5.234,9.858,18.135,25,30.378
		c15.142-12.243,25-25.144,25-30.378c0-7.707-4.785-10.441-8.883-10.441c-1.904,0-8.117,0.717-8.117,9.941h-16
		C83.997,99.772,77.784,99.056,75.88,99.056z"/>
	<path d="M91.997,159.961l4.769-3.541c6.051-4.491,36.231-27.864,36.231-46.923c0-9.929-4.199-16.098-7.723-19.524
		c-4.585-4.461-10.68-6.917-17.16-6.917c-5.802,0-11.64,2.089-16.117,6.176c-4.478-4.087-10.315-6.176-16.117-6.176
		c-6.481,0-12.575,2.456-17.161,6.916c-3.522,3.427-7.722,9.597-7.722,19.525c0,19.059,30.181,42.432,36.231,46.923L91.997,159.961z
		 M99.997,108.997c0-9.225,6.213-9.941,8.117-9.941c4.098,0,8.883,2.734,8.883,10.441c0,5.234-9.858,18.135-25,30.378
		c-15.142-12.243-25-25.144-25-30.378c0-7.707,4.785-10.441,8.883-10.441c1.904,0,8.117,0.717,8.117,9.941H99.997z"/>
	<path style="fill:#E36600;" d="M190.88,99.056c-4.098,0-8.883,2.734-8.883,10.441c0,5.234,9.858,18.135,25,30.378
		c15.142-12.243,25-25.144,25-30.378c0-7.707-4.785-10.441-8.883-10.441c-1.904,0-8.117,0.717-8.117,9.941h-16
		C198.997,99.772,192.784,99.056,190.88,99.056z"/>
	<path d="M202.229,156.42l4.769,3.541l4.769-3.541c6.051-4.491,36.231-27.864,36.231-46.923c0-9.929-4.199-16.098-7.723-19.524
		c-4.585-4.461-10.68-6.917-17.16-6.917c-5.802,0-11.64,2.089-16.117,6.176c-4.477-4.087-10.315-6.176-16.117-6.176
		c-6.481,0-12.575,2.456-17.161,6.916c-3.522,3.427-7.722,9.597-7.722,19.525C165.997,128.556,196.178,151.929,202.229,156.42z
		 M214.997,108.997c0-9.225,6.213-9.941,8.117-9.941c4.098,0,8.883,2.734,8.883,10.441c0,5.234-9.858,18.135-25,30.378
		c-15.142-12.243-25-25.144-25-30.378c0-7.707,4.785-10.441,8.883-10.441c1.904,0,8.117,0.717,8.117,9.941H214.997z"/>
	<path style="fill:#FFFFFF;" d="M149.881,232.08c22.023,0,40.657-14.289,47.348-34.083h-0.231h-94.463
		C109.225,217.791,127.857,232.08,149.881,232.08z"/>
	<path d="M216.08,181.997c0,0-109.509,0-132.166,0c0,36.448,29.586,66.083,66.083,66.083
		C186.493,248.08,216.08,218.445,216.08,181.997z M196.997,197.997h0.231c-6.69,19.794-25.324,34.083-47.348,34.083
		s-40.656-14.289-47.347-34.083L196.997,197.997L196.997,197.997z"/>
</g>
<g>
</g>
<g>
</g>
<g>
</g>
<g>
</g>
<g>
</g>
<g>
</g>
<g>
</g>
<g>
</g>
<g>
</g>
<g>
</g>
<g>
</g>
<g>
</g>
<g>
</g>
<g>
</g>
<g>
</g>
</svg>
